<?xml version="1.0" standalone="no"?>
<!DOCTYPE svg PUBLIC "-//W3C//DTD SVG 20010904//EN"
 "http://www.w3.org/TR/2001/REC-SVG-20010904/DTD/svg10.dtd">
<svg version="1.0" xmlns="http://www.w3.org/2000/svg"
 width="1000.000000pt" height="1000.000000pt" viewBox="0 0 1000.000000 1000.000000"
 preserveAspectRatio="xMidYMid meet">
<metadata>
Created by potrace 1.11, written by Peter Selinger 2001-2013
</metadata>
<g transform="translate(0.000000,1000.000000) scale(0.100000,-0.100000)"
fill="#000000" stroke="none">
<path d="M0 5000 l0 -5000 5000 0 5000 0 0 5000 0 5000 -5000 0 -5000 0 0
-5000z m3874 1805 c341 -45 630 -163 904 -369 103 -79 277 -251 355 -353 99
-130 210 -330 261 -470 l26 -73 -448 0 -447 1 -45 76 c-53 90 -169 213 -259
273 -91 61 -217 117 -329 147 -133 35 -353 38 -482 6 -492 -123 -830 -570
-830 -1096 0 -336 115 -614 347 -838 158 -153 340 -246 546 -279 107 -18 320
-8 421 19 254 68 487 242 606 454 l32 57 444 0 c370 0 444 -2 444 -14 0 -7
-16 -52 -34 -99 -189 -468 -560 -845 -1021 -1037 -392 -163 -841 -190 -1244
-74 -871 251 -1448 1106 -1350 2002 64 594 407 1123 924 1427 348 205 778 292
1179 240z m4176 -400 l0 -365 -655 0 -655 0 0 -365 0 -365 630 0 630 0 -2
-362 -3 -363 -627 -3 -628 -2 0 -365 0 -365 655 0 655 0 0 -365 0 -365 -1057
0 -1058 0 2 1822 c2 1003 3 1824 3 1826 0 1 475 2 1055 2 l1055 0 0 -365z"/>
</g>
</svg>
