<?xml version="1.0" standalone="no"?>
<!DOCTYPE svg PUBLIC "-//W3C//DTD SVG 20010904//EN"
 "http://www.w3.org/TR/2001/REC-SVG-20010904/DTD/svg10.dtd">
<svg version="1.0" xmlns="http://www.w3.org/2000/svg"
 width="300.000000pt" height="300.000000pt" viewBox="0 0 300.000000 300.000000"
 preserveAspectRatio="xMidYMid meet">
<metadata>
Created by potrace 1.11, written by Peter Selinger 2001-2013
</metadata>
<g transform="translate(0.000000,300.000000) scale(0.100000,-0.100000)"
fill="#000000" stroke="none">
<path d="M0 1500 l0 -1500 1500 0 1500 0 0 1500 0 1500 -1500 0 -1500 0 0
-1500z m1760 857 c124 -72 268 -155 320 -185 52 -30 137 -79 188 -109 l92 -55
0 -499 0 -499 -42 -26 c-54 -31 -119 -69 -507 -294 l-313 -181 -122 69 c-66
39 -260 151 -431 250 l-310 181 -3 499 -2 500 432 250 c367 212 436 248 453
239 11 -5 121 -68 245 -140z"/>
<path d="M1325 2356 c-88 -52 -268 -157 -400 -233 l-240 -139 -2 -475 -3 -474
223 -128 c122 -70 303 -175 402 -232 99 -58 187 -104 196 -103 9 2 195 106
413 232 l396 230 0 475 -1 476 -395 229 c-218 125 -403 230 -412 232 -9 2 -89
-39 -177 -90z m567 -607 c49 -25 50 -29 23 -64 l-24 -29 -46 23 c-112 56 -214
-28 -203 -166 10 -121 124 -184 221 -124 l34 21 24 -26 24 -26 -34 -29 c-63
-52 -201 -54 -274 -3 -92 64 -125 208 -73 320 54 116 207 164 328 103z m-544
-36 c18 -50 135 -353 157 -406 7 -16 2 -18 -45 -15 l-52 3 -20 53 -20 53 -100
-3 -100 -3 -16 -50 -17 -50 -54 -3 c-29 -2 -51 1 -50 6 2 4 45 113 94 240 l90
232 57 0 56 0 20 -57z"/>
<path d="M1256 1658 c-3 -7 -16 -49 -30 -93 -14 -44 -26 -83 -26 -88 0 -4 32
-7 70 -7 39 0 70 4 70 10 0 5 -13 49 -30 97 -28 84 -45 110 -54 81z"/>
</g>
</svg>
